<svg width="44" height="44" viewBox="0 0 44 44" fill="none" xmlns="http://www.w3.org/2000/svg">
<path d="M38.5 22C38.5 22.3646 38.3551 22.7144 38.0973 22.9722C37.8394 23.2301 37.4897 23.375 37.125 23.375H10.1939L20.2228 33.4022C20.3506 33.5299 20.4519 33.6816 20.5211 33.8485C20.5902 34.0154 20.6258 34.1943 20.6258 34.375C20.6258 34.5556 20.5902 34.7345 20.5211 34.9015C20.4519 35.0684 20.3506 35.22 20.2228 35.3478C20.0951 35.4755 19.9434 35.5769 19.7765 35.646C19.6096 35.7152 19.4307 35.7507 19.25 35.7507C19.0693 35.7507 18.8904 35.7152 18.7235 35.646C18.5566 35.5769 18.405 35.4755 18.2772 35.3478L5.9022 22.9728C5.77436 22.8451 5.67294 22.6934 5.60374 22.5265C5.53455 22.3596 5.49893 22.1807 5.49893 22C5.49893 21.8193 5.53455 21.6404 5.60374 21.4734C5.67294 21.3065 5.77436 21.1549 5.9022 21.0272L18.2772 8.65216C18.5352 8.39415 18.8851 8.24921 19.25 8.24921C19.6149 8.24921 19.9648 8.39415 20.2228 8.65216C20.4808 8.91016 20.6258 9.2601 20.6258 9.62497C20.6258 9.98985 20.4808 10.3398 20.2228 10.5978L10.1939 20.625H37.125C37.4897 20.625 37.8394 20.7698 38.0973 21.0277C38.3551 21.2856 38.5 21.6353 38.5 22Z" fill="#574736"/>
</svg>
